<?xml version="1.0" encoding="iso-8859-1"?>
<!-- Generator: Adobe Illustrator 24.1.0, SVG Export Plug-In . SVG Version: 6.00 Build 0)  -->
<svg version="1.1" id="Layer_2" xmlns="http://www.w3.org/2000/svg" xmlns:xlink="http://www.w3.org/1999/xlink" x="0px" y="0px"
	 viewBox="0 0 48 48" style="enable-background:new 0 0 48 48;" xml:space="preserve">
<linearGradient id="SVGID_1_" gradientUnits="userSpaceOnUse" x1="15.0715" y1="13.6236" x2="24.1106" y2="24.1286">
	<stop  offset="0" style="stop-color:#E3E3E3"/>
	<stop  offset="1" style="stop-color:#E2E2E2"/>
</linearGradient>
<path style="fill:url(#SVGID_1_);" d="M42.485,40H5.515C4.126,40,3,38.874,3,37.485V10.515C3,9.126,4.126,8,5.515,8h36.969
	C43.874,8,45,9.126,45,10.515v26.969C45,38.874,43.874,40,42.485,40z"/>
<linearGradient id="SVGID_2_" gradientUnits="userSpaceOnUse" x1="26.4526" y1="25.4405" x2="36.1698" y2="37.6427">
	<stop  offset="0" style="stop-color:#F5F5F5"/>
	<stop  offset="0.0302" style="stop-color:#EEEEEE"/>
	<stop  offset="1" style="stop-color:#EEEEEE"/>
</linearGradient>
<path style="fill:url(#SVGID_2_);" d="M42.485,40H8l37-29v26.485C45,38.874,43.874,40,42.485,40z"/>
<linearGradient id="SVGID_3_" gradientUnits="userSpaceOnUse" x1="3" y1="24" x2="45" y2="24">
	<stop  offset="0" style="stop-color:#D74A39"/>
	<stop  offset="1" style="stop-color:#C73D28"/>
</linearGradient>
<path style="fill:url(#SVGID_3_);" d="M5.515,8H8v32H5.515C4.126,40,3,38.874,3,37.485V10.515C3,9.126,4.126,8,5.515,8z M42.485,8
	H40v32h2.485C43.874,40,45,38.874,45,37.485V10.515C45,9.126,43.874,8,42.485,8z"/>
<linearGradient id="SVGID_4_" gradientUnits="userSpaceOnUse" x1="24" y1="8" x2="24" y2="38.1815">
	<stop  offset="0" style="stop-color:#000000;stop-opacity:0.15"/>
	<stop  offset="0.9995" style="stop-color:#000000;stop-opacity:0.03"/>
</linearGradient>
<path style="fill:url(#SVGID_4_);" d="M42.485,40H30.515L3,11.485v-0.969C3,9.126,4.126,8,5.515,8h36.969
	C43.874,8,45,9.126,45,10.515v26.969C45,38.874,43.874,40,42.485,40z"/>
<linearGradient id="SVGID_5_" gradientUnits="userSpaceOnUse" x1="3" y1="17.7297" x2="45" y2="17.7297">
	<stop  offset="0" style="stop-color:#F5F5F5"/>
	<stop  offset="1" style="stop-color:#F5F5F5"/>
</linearGradient>
<path style="fill:url(#SVGID_5_);" d="M43.822,13.101L24,27.459L4.178,13.101C3.438,12.565,3,11.707,3,10.793v-0.278
	C3,9.126,4.126,8,5.515,8h36.969C43.874,8,45,9.126,45,10.515v0.278C45,11.707,44.562,12.565,43.822,13.101z"/>
<linearGradient id="SVGID_6_" gradientUnits="userSpaceOnUse" x1="24" y1="8.4457" x2="24" y2="27.8107">
	<stop  offset="0" style="stop-color:#E05141"/>
	<stop  offset="1" style="stop-color:#DE4735"/>
</linearGradient>
<path style="fill:url(#SVGID_6_);" d="M42.485,8h-0.3L24,21.172L5.815,8h-0.3C4.126,8,3,9.126,3,10.515v0.278
	c0,0.914,0.438,1.772,1.178,2.308L24,27.459l19.822-14.358C44.562,12.565,45,11.707,45,10.793v-0.278C45,9.126,43.874,8,42.485,8z"
	/>
</svg>